<?xml version="1.0" encoding="UTF-8"?><svg id="uuid-cfb9dfd8-f0c8-460f-ab1c-d47b6b51a94f" xmlns="http://www.w3.org/2000/svg" viewBox="0 0 172.17 50"><defs><style>.uuid-9a22054a-b3e6-45fd-9fb4-cfc6f99be4be{fill:#557b83;}.uuid-591cdb4c-e8e1-4bcc-bd1c-aee6eb3edbfb{fill:#3eafab;}.uuid-2c2b43b0-9f2e-4bf3-8b13-850c5f5c69bd{fill:#597e86;}.uuid-9efe3dde-f680-4502-ac4f-a0fc9f9e05f0{fill:#5a7f87;}.uuid-9788dfd7-4f0f-4c96-9e04-299865bc97a4{fill:#43b1ad;}.uuid-5db087d1-efe2-42ee-abc6-e4e2c817b98f{fill:#3fb0ab;}.uuid-02dbc32d-a0fe-486d-bf1d-9a68735765bb{fill:#3dafaa;}.uuid-9ba19cf2-a39d-4b51-a558-c439db7883df{fill:#43b2ad;}</style></defs><g id="uuid-fea27dc2-6c26-4bb7-ac04-2134910507e5"><g><path class="uuid-9a22054a-b3e6-45fd-9fb4-cfc6f99be4be" d="M0,24.94C.02,11.13,11.26-.04,25.11,0c13.73,.04,24.92,11.29,24.89,25.06-.02,13.8-11.29,24.98-25.13,24.94C11.12,49.96-.02,38.74,0,24.94Zm28.36-.54c1.37-.82,2.66-1.68,3.14-3.33,.93-3.23-1.27-6.42-4.9-7.06-2.77-.49-5.57-.15-8.35-.26-.69-.03-.58,.44-.58,.84,0,6.95,0,13.9-.01,20.86,0,.55,.09,.83,.74,.81,2.37-.04,4.74,.05,7.1-.07,2.21-.11,4.2-.92,5.59-2.73,2.47-3.2,1.26-7.16-2.74-9.07Z"/><path class="uuid-5db087d1-efe2-42ee-abc6-e4e2c817b98f" d="M70.5,22.59c3.06,1.71,3.82,4.61,1.85,6.97-1.04,1.24-2.47,1.8-4.05,1.86-1.68,.06-3.37,0-5.05,.03-.58,.01-.8-.16-.8-.77,.02-5.09,.01-10.17,0-15.26,0-.42,.02-.76,.59-.74,2.1,.09,4.21-.24,6.29,.24,2.72,.64,4.17,2.9,3.44,5.26-.35,1.14-1.19,1.83-2.28,2.41Zm-5.85,3.97q0,3.17,3.21,3.06c.15,0,.31-.01,.46-.03,1.79-.2,2.9-1.4,2.87-3.1-.03-1.63-1.19-2.75-2.97-2.85-.76-.04-1.54,.05-2.29-.03-.96-.1-1.44,.15-1.28,1.23,.08,.56,.01,1.15,.01,1.72Zm-.06-7.49c0,.69,0,1.37,0,2.06,0,.3-.02,.68,.42,.67,1.4-.03,2.83,.26,4.18-.33,1.17-.51,1.66-1.4,1.55-2.65-.1-1.2-.84-1.8-1.92-2.13-.56-.17-1.12-.18-1.7-.18q-2.54,0-2.54,2.56Z"/><path class="uuid-9788dfd7-4f0f-4c96-9e04-299865bc97a4" d="M149.63,30.46c0,1.79-.05,3.35,.02,4.92,.04,.88-.4,.92-1.04,.88-.58-.04-1.2,.19-1.19-.85,.05-5.2,.02-10.39,.02-15.59,0-.43-.06-.89,.6-.86,.71,.03,1.66-.34,1.46,1.16,.92-.63,1.64-1.13,2.52-1.28,2.46-.43,4.52,.67,5.4,3.01,.78,2.06,.81,4.19,.14,6.29-1.08,3.41-4.35,4.57-7.4,2.66-.12-.08-.24-.15-.53-.33Zm0-5.25c0,.8,.03,1.6-.01,2.4-.04,.68,.23,1.18,.73,1.59,1.14,.96,3.13,.92,4.21-.1,1.77-1.66,1.72-6.19-.11-7.78-.99-.86-2.15-.94-3.32-.47-1.11,.44-1.65,1.27-1.51,2.52,.07,.6,.01,1.22,.01,1.83Z"/><path class="uuid-591cdb4c-e8e1-4bcc-bd1c-aee6eb3edbfb" d="M163.64,20.19c3.6-2.76,7.41-1.33,8.3,2.91,.38,1.79,.32,3.58-.31,5.3-1.15,3.17-4.45,4.25-7.28,2.41-.12-.08-.23-.16-.55-.38,0,1.74-.06,3.28,.02,4.82,.06,.98-.42,.99-1.16,1.02-.82,.03-1.11-.15-1.1-1.05,.05-5.01,.01-10.01,.04-15.02,0-.45-.43-1.24,.63-1.24,.78,0,1.62-.14,1.41,1.23Zm.16,5.05c0,.46-.03,.92,0,1.37,.06,.77-.24,1.59,.4,2.29,1.13,1.25,3.32,1.35,4.53,.16,1.7-1.66,1.72-5.96,.03-7.62-.85-.84-2.27-1.11-3.41-.64-1.17,.48-1.71,1.31-1.57,2.6,.07,.6,.01,1.22,.01,1.83Z"/><path class="uuid-9ba19cf2-a39d-4b51-a558-c439db7883df" d="M115.88,31.27c-1.92,.6-3.1-.11-4.05-1.61-.75-1.19-1.74-2.22-2.59-3.36-.37-.5-.57-.61-1.11-.12-.71,.64-1.11,1.29-.98,2.27,.08,.6-.05,1.23,.03,1.83,.13,1-.31,1.19-1.23,1.18-.84,0-1-.3-1-1.07,.03-5.2,.04-10.4,0-15.6,0-.88,.26-1.1,1.1-1.08,.77,.02,1.16,.09,1.14,1.04-.07,3.13-.02,6.26-.02,9.47,.56-.1,.76-.54,1.06-.84,1.06-1.05,2.2-2.03,3.14-3.18,1.01-1.23,2.19-1.49,3.79-1.14-1.45,1.49-2.81,2.96-4.25,4.35-.61,.59-.6,.95-.07,1.58,1.71,2.04,3.34,4.15,5.04,6.27Z"/><path class="uuid-02dbc32d-a0fe-486d-bf1d-9a68735765bb" d="M132.27,31.32c1.18-3.64,2.35-7.26,3.52-10.89,.54-1.67,1.12-3.33,1.6-5.02,.19-.69,.58-.75,1.17-.76,.61-.01,.97,.12,1.17,.77,1.55,4.99,3.13,9.97,4.69,14.95,.1,.33,.55,.92-.09,.98-.59,.06-1.5,.57-1.85-.48-.33-.98-.63-1.96-.9-2.96-.16-.61-.44-.87-1.11-.84-1.3,.06-2.6,.06-3.9,0-.68-.03-.96,.26-1.11,.86-.16,.63-.36,1.25-.55,1.86q-.56,1.8-2.63,1.51Zm6.27-13.34c-.79,2.57-1.49,4.86-2.21,7.19h4.39c-.72-2.36-1.41-4.63-2.19-7.19Z"/><path class="uuid-5db087d1-efe2-42ee-abc6-e4e2c817b98f" d="M90.2,25.21c.05-2.2,.66-4.16,2.53-5.49,2.78-1.98,6.69-.9,8.15,2.19,1.22,2.57,.82,6.28-.95,8.08-1.65,1.69-3.69,2.1-5.9,1.38-2.43-.8-3.43-2.74-3.78-5.13-.05-.34-.04-.68-.06-1.03Zm2.22,.08c-.06,1.08,.12,2.2,.78,3.2,1.27,1.94,4.25,1.95,5.4-.05,1.18-2.07,1.19-4.28,.01-6.34-1.23-2.16-4.18-2.09-5.5,.03-.59,.95-.73,1.99-.7,3.17Z"/><path class="uuid-5db087d1-efe2-42ee-abc6-e4e2c817b98f" d="M87.42,25.06c0,3.37-1.58,5.72-4.18,6.43-2.69,.74-5.43-.52-6.54-3.07-.87-2.01-.9-4.08-.1-6.13,1.01-2.6,3.3-3.86,6.14-3.46,2.41,.34,4.26,2.44,4.63,5.27,.05,.38,.05,.76,.06,.95Zm-9.17,.21c-.05,.84,.08,1.7,.43,2.53,.56,1.32,1.51,2.08,2.99,2.1,1.47,.03,2.52-.64,3.06-1.98,.78-1.93,.81-3.9-.21-5.75-1.22-2.21-4.27-2.2-5.56-.03-.57,.95-.76,1.99-.7,3.13Z"/><path class="uuid-9efe3dde-f680-4502-ac4f-a0fc9f9e05f0" d="M20.51,29.79c0-1.07,.03-2.14-.01-3.21-.02-.61,.12-.9,.81-.88,1.34,.05,2.68-.02,4.01,.04,2.2,.1,3.81,1.52,4.04,3.5,.25,2.15-.89,3.76-3.16,4.37-1.73,.46-3.5,.19-5.25,.24-.56,.02-.44-.42-.44-.74,0-1.11,0-2.22,0-3.33Z"/><path class="uuid-2c2b43b0-9f2e-4bf3-8b13-850c5f5c69bd" d="M23.33,16.31c.73,0,1.46-.05,2.17,.01,1.87,.17,3.13,1.38,3.28,3.08,.15,1.7-.98,3.26-2.74,3.72-1.65,.44-3.35,.18-5.02,.24-.52,.02-.51-.33-.51-.69,0-1.87,.03-3.74-.01-5.61-.01-.68,.26-.86,.88-.82,.65,.04,1.3,0,1.95,0,0,.02,0,.04,0,.07Z"/></g></g></svg>