<?xml version="1.0" encoding="UTF-8"?><svg id="uuid-4f950848-e78c-495c-9a54-a45ac8b1d055" xmlns="http://www.w3.org/2000/svg" viewBox="0 0 181 52.56"><defs><style>.uuid-7fe02644-c035-41f7-a99a-06e29cf8ec05{fill:#557b83;}.uuid-367a25a5-472d-4fa2-a2e5-7a380b95b487{fill:#3eafab;}.uuid-3a7012bc-3ae7-4230-8b9e-b7403a7f057e{fill:#597e86;}.uuid-44ed9c25-81a7-439d-9850-409f1d661931{fill:#5a7f87;}.uuid-c61147bb-2411-4584-9787-45864e1066d7{fill:#43b1ad;}.uuid-3b2b0066-bb48-4e3e-9f2b-43c19b4a0e82{fill:#3fb0ab;}.uuid-0f204627-9860-4577-9f98-b045a304ab38{fill:#3dafaa;}.uuid-ea24dd14-5a94-4f91-9584-53d7014f65bf{fill:#43b2ad;}</style></defs><g id="uuid-071ad90a-a913-4183-bee1-8f18f332d5fd"><g><path class="uuid-7fe02644-c035-41f7-a99a-06e29cf8ec05" d="M0,26.22C.02,11.7,11.83-.04,26.4,0c14.44,.04,26.19,11.87,26.17,26.34-.02,14.5-11.87,26.26-26.42,26.22C11.69,52.52-.02,40.73,0,26.22Zm29.82-.57c1.44-.86,2.8-1.76,3.3-3.5,.97-3.4-1.33-6.75-5.15-7.42-2.91-.51-5.85-.16-8.78-.27-.73-.03-.61,.46-.61,.88,0,7.31,0,14.62-.01,21.92,0,.58,.09,.87,.78,.86,2.49-.05,4.98,.06,7.47-.07,2.32-.12,4.42-.97,5.88-2.87,2.6-3.37,1.33-7.52-2.88-9.53Z"/><path class="uuid-3b2b0066-bb48-4e3e-9f2b-43c19b4a0e82" d="M74.11,23.74c3.22,1.79,4.01,4.85,1.95,7.32-1.09,1.31-2.59,1.89-4.26,1.95-1.77,.07-3.54,0-5.31,.03-.61,.01-.85-.16-.84-.81,.02-5.35,.01-10.69,0-16.04,0-.44,.03-.8,.62-.78,2.2,.1,4.43-.25,6.61,.26,2.86,.67,4.38,3.05,3.62,5.53-.37,1.2-1.25,1.93-2.4,2.54Zm-6.15,4.17q0,3.33,3.38,3.22c.16,0,.32-.01,.48-.03,1.88-.21,3.05-1.47,3.01-3.26-.03-1.71-1.25-2.9-3.13-3-.8-.04-1.61,.05-2.41-.03-1.01-.1-1.52,.16-1.35,1.29,.09,.59,.02,1.2,.02,1.81Zm-.07-7.87c0,.72,0,1.44,0,2.16,0,.32-.02,.71,.44,.7,1.47-.03,2.98,.28,4.39-.35,1.23-.54,1.74-1.47,1.63-2.79-.11-1.26-.89-1.9-2.02-2.24-.59-.18-1.18-.19-1.78-.19q-2.67,0-2.67,2.7Z"/><path class="uuid-c61147bb-2411-4584-9787-45864e1066d7" d="M157.3,32.02c0,1.88-.05,3.53,.02,5.17,.04,.92-.42,.97-1.1,.92-.61-.04-1.26,.2-1.25-.89,.05-5.46,.02-10.93,.02-16.39,0-.45-.06-.93,.63-.9,.75,.03,1.74-.36,1.53,1.22,.97-.66,1.72-1.18,2.65-1.35,2.58-.45,4.76,.71,5.68,3.16,.82,2.17,.85,4.41,.15,6.61-1.14,3.59-4.58,4.8-7.78,2.8-.13-.08-.25-.16-.56-.35Zm0-5.52c0,.84,.04,1.69-.01,2.53-.04,.72,.25,1.24,.76,1.67,1.2,1.01,3.29,.97,4.43-.1,1.87-1.74,1.81-6.5-.11-8.17-1.04-.91-2.26-.99-3.49-.49-1.16,.47-1.74,1.33-1.59,2.65,.07,.63,.01,1.28,.01,1.92Z"/><path class="uuid-367a25a5-472d-4fa2-a2e5-7a380b95b487" d="M172.03,21.22c3.78-2.9,7.79-1.4,8.72,3.06,.4,1.89,.34,3.76-.32,5.58-1.21,3.33-4.68,4.46-7.66,2.53-.13-.08-.25-.17-.58-.4,0,1.82-.07,3.45,.02,5.07,.06,1.03-.44,1.04-1.22,1.07-.86,.03-1.17-.16-1.16-1.11,.05-5.26,.01-10.53,.04-15.79,0-.47-.45-1.31,.66-1.31,.82,0,1.71-.15,1.48,1.3Zm.17,5.31c0,.48-.03,.97,0,1.44,.07,.81-.25,1.67,.42,2.41,1.18,1.31,3.49,1.41,4.76,.17,1.79-1.75,1.8-6.26,.03-8.01-.9-.88-2.39-1.16-3.58-.68-1.23,.5-1.8,1.38-1.65,2.73,.07,.63,.01,1.28,.01,1.93Z"/><path class="uuid-ea24dd14-5a94-4f91-9584-53d7014f65bf" d="M121.82,32.88c-2.02,.63-3.26-.12-4.26-1.69-.79-1.25-1.83-2.34-2.72-3.53-.39-.53-.6-.64-1.16-.13-.74,.67-1.17,1.36-1.03,2.39,.08,.63-.05,1.29,.03,1.93,.13,1.06-.33,1.25-1.29,1.24-.88-.01-1.05-.31-1.05-1.12,.03-5.47,.04-10.93,0-16.4,0-.92,.27-1.16,1.16-1.14,.81,.02,1.22,.1,1.2,1.09-.07,3.29-.03,6.59-.03,9.96,.59-.1,.8-.57,1.12-.88,1.12-1.1,2.31-2.14,3.3-3.34,1.06-1.29,2.3-1.57,3.98-1.2-1.52,1.57-2.95,3.12-4.47,4.57-.64,.62-.63,.99-.07,1.66,1.79,2.15,3.51,4.36,5.3,6.59Z"/><path class="uuid-0f204627-9860-4577-9f98-b045a304ab38" d="M139.05,32.92c1.24-3.82,2.47-7.63,3.7-11.45,.57-1.76,1.18-3.5,1.68-5.27,.2-.72,.61-.79,1.23-.8,.64-.01,1.02,.13,1.23,.81,1.63,5.25,3.29,10.48,4.93,15.72,.11,.35,.58,.97-.09,1.03-.62,.06-1.58,.6-1.95-.5-.34-1.03-.66-2.06-.94-3.11-.17-.64-.47-.92-1.17-.89-1.36,.06-2.73,.06-4.1,0-.72-.03-1.01,.28-1.17,.9-.17,.66-.38,1.31-.58,1.96q-.59,1.89-2.76,1.59Zm6.59-14.02c-.83,2.7-1.57,5.11-2.32,7.56h4.62c-.75-2.48-1.48-4.87-2.3-7.56Z"/><path class="uuid-3b2b0066-bb48-4e3e-9f2b-43c19b4a0e82" d="M94.83,26.5c.05-2.31,.69-4.38,2.66-5.78,2.92-2.08,7.03-.95,8.57,2.3,1.28,2.7,.86,6.6-.99,8.49-1.74,1.77-3.88,2.21-6.2,1.45-2.55-.84-3.61-2.88-3.97-5.39-.05-.36-.04-.72-.06-1.08Zm2.34,.09c-.06,1.14,.13,2.31,.82,3.36,1.34,2.03,4.47,2.05,5.68-.06,1.24-2.17,1.25-4.5,.01-6.67-1.29-2.27-4.4-2.2-5.78,.03-.62,1-.77,2.1-.73,3.33Z"/><path class="uuid-3b2b0066-bb48-4e3e-9f2b-43c19b4a0e82" d="M91.9,26.34c0,3.54-1.66,6.01-4.4,6.76-2.83,.78-5.71-.54-6.88-3.22-.92-2.11-.95-4.29-.11-6.44,1.06-2.73,3.47-4.06,6.45-3.64,2.54,.35,4.48,2.56,4.87,5.54,.05,.4,.05,.8,.06,1Zm-9.65,.23c-.06,.88,.08,1.79,.45,2.66,.59,1.38,1.59,2.18,3.14,2.21,1.54,.03,2.65-.68,3.22-2.08,.82-2.03,.85-4.1-.22-6.05-1.28-2.32-4.48-2.31-5.85-.03-.6,1-.8,2.09-.74,3.29Z"/><path class="uuid-44ed9c25-81a7-439d-9850-409f1d661931" d="M21.57,31.32c0-1.13,.03-2.25-.01-3.38-.02-.64,.12-.95,.85-.92,1.4,.06,2.82-.02,4.22,.04,2.32,.1,4.01,1.59,4.25,3.68,.27,2.26-.94,3.96-3.33,4.6-1.81,.49-3.68,.2-5.52,.26-.59,.02-.46-.44-.46-.77-.01-1.17,0-2.33,0-3.5Z"/><path class="uuid-3a7012bc-3ae7-4230-8b9e-b7403a7f057e" d="M24.52,17.15c.76,0,1.53-.06,2.29,.01,1.96,.17,3.29,1.45,3.45,3.24,.16,1.78-1.03,3.42-2.88,3.91-1.74,.46-3.52,.18-5.28,.25-.55,.02-.54-.35-.54-.73,0-1.97,.03-3.94-.01-5.9-.01-.72,.27-.9,.92-.86,.68,.04,1.36,0,2.05,0,0,.02,0,.05,0,.07Z"/></g></g></svg>